<?xml version='1.0' encoding='utf-8'?>
<svg xmlns="http://www.w3.org/2000/svg" enable-background="new 0 0 446.2 512.4" version="1.1" viewBox="0 0 446.2 512.4"> <style type="text/css">.st0{fill:#F3DF76;} .st1{fill:#3A2D32;} .st2{fill:#FCFCFC;} .st3{fill:#FEC52C;} .st4{fill:#E5E3DC;} .st5{fill:#F7AF28;} .st6{fill:#B57F2E;}</style> <path class="st0" d="m63.1 166.7 10.5 2.1c-0.8-0.7-1.5-1.5-2.3-2.2 4.9 1.1 9.7 3 13.8 6.1-5.7-0.4-11.1-2.4-16.6-3.7-2-0.4-3.8-1.3-5.4-2.3z"/> <path class="st1" d="m123.5 23.1c20.2-14 44.5-21.7 69-23 37.9-1.7 76.4 13.6 102 41.8 12.3 13.5 21.6 29.6 27.2 47 12.6 39 5 84.3-20.8 116.4-5.1 6.8-11.5 12.5-17.7 18.3 21.6 1 44.2 5.4 61.9 18.6 3.9 2.6 7 6.1 10.4 9.1 5.4 0 10.7-1.6 16-2.5 15.3-3 30.4-7 45.2-11.6 4.5-1.3 9.1-2.9 13.9-2.3 3.9 0.6 7.4 3.2 9.1 6.7 2.7 5.3 2.5 11.4 1.9 17.1-1.6 12.2-5.3 24.1-11.3 34.9 3.7 0.2 7.7 0.1 10.8 2.5 4.1 3.2 5.5 8.7 5.1 13.7-2 28.5-15.8 55.8-37 74.8-2.1 1.8-2 4.8-2.8 7.3-7.3 27.8-28.2 50.4-53.3 63.6-2.5 1.4-5.2 2.5-7.3 4.5-1.6 4.3-1.9 9-3.9 13.2-6 14.4-18.6 25.3-32.8 31.3-23.5 10.1-50.8 10.2-74.9 2.1-8.8-3.3-17.3-7.7-24.4-13.9-2.4-2-4.2-4.7-6.5-6.7-4.7 0.5-9.1 2.6-13.6 3.9-19.1 5.8-39 9.9-59.1 9.1-16.3-0.6-33.1-3.2-47.3-11.8-7.6-4.5-14.4-10.6-19-18.2-2.7-4.2-2.3-10.4 1.8-13.6 2.7-2 6.2-2.4 9.4-3.2 11.1-2.1 22-4.9 33.1-6.8 1.9 0.1-0.1-1.5-0.6-1.8-27.2-20.1-45.5-52-48-85.8-1.6-21.3 2.2-43.1 11.2-62.5 10.5-22.5 27.3-42 48-55.8 5.6-3.8 11.7-6.5 17.5-9.9-0.1-1.3-1.8-1.6-2.7-2.2-9.6-4.6-19-9.8-27.4-16.4-3.4-2.6-6-6.1-9.4-8.7-24.6-0.4-49.5-5.3-71.6-16.4-11.2-5.5-21.4-14.6-25-27-1.7-5.8 0.6-12.1 5.1-15.9 7-6.2 16.6-7.7 25.4-9.8 7.5-1.7 14.5-5.5 20.2-10.7 4.6-4.4 8.5-9.3 13.2-13.5 3.7-2.7 3.9-7.6 5.3-11.6 8.8-29.8 27.7-56.9 53.7-74.3zm19.4 2.4c-23.1 12.2-42.2 31.8-53.5 55.4-3.6 7.3-5.8 15.1-8.6 22.7 9.7-3.6 21.5-2.4 29.2 4.9 7.1 5.9 10.6 14.6 15.9 22 6 8.5 13.4 16.2 22.3 21.7 5.5 3.6 11.9 5.7 17.2 9.5 6.5 4.6 7.9 14.9 2.4 20.7-3.6 4.3-9.5 4.8-14.4 6.6-14.1 5-28.9 7.4-43.8 8.5 7.5 6.8 16.1 12.4 25.2 16.9 4.9 2.7 10.7 4.5 14.5 9 2.9 3.4 2.6 8.4 0.9 12.3-1.4 2.5-4.2 3.4-6.6 4.5-21.5 9.3-40.1 25.1-52.8 44.8h-0.1c-13.1 20.4-20.7 44.8-18.8 69.2 1.6 23.5 10.9 46.4 26.3 64.2 10.7 12.7 25 22 39.9 29.1 17.5 8 36 13.7 54.9 17.3 4.1 0.7 8.3 1.1 12.4 2.1 3.5 0.8 5.7 3.9 8.1 6.3 10.5-1.8 20.2-6.2 30-10.2v-0.2c7.4-4 16-1.8 24-2.1 18.5-0.1 37.2-1.7 55.1-6.6 15.7-4.1 31-11 43.4-21.6 13.7-11.7 24.8-27.2 28.8-44.9 0.9-3 0.4-6.9 3.2-9 9.2-8.2 17.5-17.6 23.5-28.5 7.4-13.4 12.6-28.5 12.5-43.9-7.6 0.5-15.2 1.2-22.8 1.1-1.1-4.6 1.5-8.8 4-12.4 8.3-12.4 14.1-26.8 14.9-41.8 0.2-2.1-0.2-4.4-1.7-6.1-4.8 0.6-9.4 2.5-14.1 3.7-18.4 5.5-37.1 9.8-56 12.7-4 0.6-8.8 1.1-11.9-2.2-4.2-4.2-8-8.9-13.3-11.9-16-10.4-35.7-12-54.3-12.8-6.5-0.5-10.9-7.2-10-13.4 0.5-6.1 6.9-8.9 10.7-12.9 22.5-20.1 35.5-49.9 35.7-80 0.7-35.5-16-70.9-44-92.8-18-13.9-40-22.8-62.7-24.9-22.4-2-45.5 2.4-65.6 13zm-53.8 82.3c-3.8 0.3-7.4 2-10.4 4.2-8.6 6.3-14.1 15.9-22.5 22.4-7 5.2-15.1 8.9-23.6 10.7-5.9 1.5-12.2 2.2-17.4 5.4-2.7 1.6-3.6 5.8-1.2 7.9 2.5 1.9 5.7 2.5 8.6 3.6 12 4.4 24.4 7.6 36.7 11.1 31.9 8.4 65.5 11.6 98.3 7 4.3-0.1 8.1-3.8 7.3-8.2-0.4-4.7-5-6.9-8.7-8.6-14.5-6.3-27-17-35.9-30.1-5.2-7.2-8.5-15.9-15.7-21.5-4.2-3.5-10.1-4.6-15.5-3.9zm-69.6 59.6c0.2 0.3 0.7 1 0.9 1.3 4.9 3.3 9.7 6.8 15.3 8.9 9.4 3.6 18.8 7.3 28.7 9.1 12.1 2.8 24.6 3.1 37 3.5 8.3-0.8 16.7-0.4 24.9-1.9-28.8 0.4-57.4-5.2-84.8-13.6-7.3-2.3-14.8-4.3-22-7.3zm53.7 297.7c2.4 5 6.6 9 11.4 11.7 5.1-0.6 9.8-2.7 14.7-4 16-4.5 31.9-9.5 48.1-13.6l-0.1 1.3c-17 3.3-33.3 9.4-50.1 13.5l-0.1 0.4c-3.5 0.9-7 1.6-10.3 3.1-1 1.4 0.8 1.8 1.7 2.5 5.6 3 11.6 5.7 17.8 6.7 2.7-0.7 5.1-2.1 7.8-2.9-1.9 1.3-3.9 2.4-5.9 3.6 18.9 4.6 38.7 3.2 57.6-0.8 13.2-2.8 26.3-6.4 38.7-11.9-5.8-3.5-12.9-2.9-19.2-4.6-7.7-1.8-15.4-3.6-22.9-6.2-2-0.6-3.9-1.4-6-1.6-12 5.8-23.9 11.8-35.7 18-2.1 1.2-4.3 2.4-6.4 3.6-0.3-0.2-0.8-0.6-1.1-0.8 6.9-3 13.3-6.9 20-10.3 7.2-4.1 15-7.1 22.1-11.3-8.5-1.3-15.4-7.2-23.7-9-19.3 4.4-38.9 8.2-58.4 12.6zm225.1 0.5c-6.1 1.6-12.5 0.9-18.6 2.5-6.7-0.9-13.5-0.3-20.3-0.8-3.6-0.1-7.3-0.7-10.6 0.9-11.8 5.3-23.8 9.9-36.1 13.8 3.7 4.8 8.6 8.4 13.9 11.3 1.4 1.1 2.9-0.1 4.3-0.7 11-5.7 22.1-11.4 33.2-16.9 4.9-2.4 9.5-5.4 14.8-6.8-13.8 7.3-27.9 14.1-41.8 21.4-2.7 1.3-5.3 2.7-7.9 4.1 9 4.9 19.2 7.2 29.3 8.1 17.9 2.3 37-0.6 52.5-10.1 8.4-5.6 16.2-13.3 19.6-23 1.6-3.5 2.4-7.3 3.1-11.1-11.6 3.5-23.5 5.6-35.4 7.3z"/> <path class="st1" d="m174.9 91.4c7.4-1.6 15.7-0.4 21.9 4.2 5.8 4.1 10.2 10.9 9.9 18.3 0.6 12.1-8.4 23.7-20.1 26.6-8 2-17.1 0.2-23.3-5.3-6.3-5.4-9.6-14.2-8.1-22.5 1.3-10.2 9.7-19 19.7-21.3zm15.8 8.8c-4.5 1.4-6.9 6.9-4.5 11.1 3 5.9 13.9 4.8 14.4-2.3 1.3-5.6-4.4-11.1-9.9-8.8z"/> <path class="st1" d="m62.9 139.4c4.4-0.8 9.9-0.6 13 3.2 2.4 2.9-0.8 7.8-4.4 7.3-4.4-0.3-9.6-0.8-12.7-4.3-1.1-2.9 1.4-5.6 4.1-6.2z"/> <path class="st2" d="m142.9 25.5c20-10.6 43.1-15 65.7-13.2 22.7 2.1 44.6 11 62.7 24.9 28 21.9 44.7 57.3 44 92.8-0.2 30.1-13.2 59.9-35.7 80-3.8 4-10.1 6.8-10.7 12.9-0.9 6.2 3.5 12.9 10 13.4 18.6 0.8 38.3 2.4 54.3 12.8 5.2 3 9.1 7.7 13.3 11.9 3 3.3 7.9 2.8 11.9 2.2 18.9-3 37.7-7.2 56-12.7 4.7-1.2 9.3-3.1 14.1-3.7 1.5 1.6 1.9 3.9 1.7 6.1-0.9 15-6.6 29.4-14.9 41.8-2.5 3.7-5.2 7.8-4 12.4 7.6 0.1 15.2-0.5 22.8-1.1 0.1 15.4-5.1 30.5-12.5 43.9-6 10.9-14.3 20.3-23.5 28.5-2.8 2.1-2.3 6-3.2 9-4 17.7-15.1 33.2-28.8 44.9-12.4 10.6-27.6 17.6-43.4 21.6-17.9 4.8-36.6 6.4-55.1 6.6-8 0.2-16.6-1.9-24 2.1 0.1-0.8 0.3-2.5 0.4-3.3 0.9 0.1 1.9 0.2 2.9 0.3l0.4-1.6c9.7-1.9 19.6-1 29.3-2.1 8-1 16 1.5 23.9 0 8.5-0.5 16.5-3.5 24.8-4.8 5-0.9 9.3-3.8 14-5.5 9.6-3.6 17.9-9.7 26-15.9 6.7-4.4 11.6-11 15.5-17.9-7.5 3.4-14.1 8.6-21.6 12-26.7 12.5-55.6 20.8-85.1 23 7.9 0.6 15.4 3.1 23.1 4.5 0.5 1.4-2 1-2.7 1.5-7.3 0.8-14.6 2.2-22 2.4-9.7 0-19.4 1.7-29.2 0.3-37-1.8-73.9-13.5-103.8-35.8 5.6 6 10.7 12.4 16.3 18.4-19.2-7.2-36-20-48.9-35.8-5.5-8.5-11.3-17-14.4-26.7-3.7-10.3-6.5-20.9-7.4-31.8-0.6-12 0-24.1 2.5-35.8 2.1-7.5 3.6-15.3 6.9-22.4-1.3-0.2-2.5-0.5-3.8-0.7 12.6-19.7 31.3-35.5 52.8-44.8 2.4-1.2 5.2-2.1 6.6-4.5 1.7-3.9 2-8.8-0.9-12.3-3.8-4.4-9.5-6.2-14.5-9-9.1-4.5-17.6-10.1-25.2-16.9 14.9-1.1 29.7-3.5 43.8-8.5 4.9-1.8 10.8-2.4 14.4-6.6 5.5-5.9 4.1-16.1-2.4-20.7-5.4-3.8-11.7-5.9-17.2-9.5-8.9-5.5-16.3-13.2-22.3-21.7-5.3-7.3-8.9-16-15.9-22-7.6-7.3-19.5-8.5-29.2-4.9 2.8-7.6 5-15.4 8.6-22.7 11.5-23.5 30.6-43.1 53.6-55.3zm32 65.9c-10 2.3-18.4 11-19.7 21.3-1.5 8.2 1.8 17 8.1 22.5s15.3 7.3 23.3 5.3c11.7-2.9 20.7-14.5 20.1-26.6 0.3-7.4-4.1-14.1-9.9-18.3-6.2-4.5-14.4-5.8-21.9-4.2z"/> <path class="st2" d="m190.7 100.2c5.5-2.2 11.1 3.2 9.9 8.8-0.4 7.1-11.4 8.2-14.4 2.3-2.3-4.2 0-9.7 4.5-11.1z"/> <path class="st3" d="m89.1 107.8c5.4-0.7 11.3 0.4 15.6 4 7.2 5.6 10.5 14.3 15.7 21.5 8.9 13 21.3 23.8 35.9 30.1 3.7 1.7 8.3 3.9 8.7 8.6 0.8 4.4-3.1 8.1-7.3 8.2-32.8 4.7-66.4 1.4-98.3-7-12.3-3.5-24.7-6.7-36.7-11.1-2.9-1.1-6.1-1.7-8.6-3.6-2.5-2.2-1.5-6.4 1.2-7.9 5.2-3.2 11.6-3.9 17.4-5.4 8.5-1.8 16.6-5.5 23.6-10.7 8.4-6.5 13.9-16.1 22.5-22.4 2.9-2.3 6.5-4 10.3-4.3zm-26.2 31.6c-2.6 0.6-5.2 3.3-4.1 6.2 3.2 3.4 8.3 4 12.7 4.3 3.6 0.5 6.8-4.4 4.4-7.3-3.1-3.8-8.6-4-13-3.2zm-42.2 11.9c-2.7 0.3-4.2 4.7-0.8 5 14.7 2.1 28.9 6.6 43.1 10.5 1.7 1 3.4 1.8 5.3 2.3 5.5 1.4 10.9 3.3 16.6 3.7-4-3.1-8.8-4.9-13.8-6.1-10-4.1-19.9-8.5-30.2-12.1-6.4-1.9-13.3-4.7-20.2-3.3z"/> <path class="st3" d="m73.2 465.1c19.5-4.5 39.1-8.2 58.6-12.6 8.3 1.8 15.2 7.6 23.7 9-7.1 4.3-14.9 7.2-22.1 11.3-6.7 3.4-13.1 7.3-20 10.3-4.8-3.7-10.2-6.9-16.5-6.6 0.1-0.5 0.2-1.6 0.3-2.1l0.1-0.4c16.8-4.1 33.1-10.2 50.1-13.5l0.1-1.3c-16.1 4.1-32 9-48.1 13.6-4.9 1.4-9.6 3.4-14.7 4-4.9-2.7-9.1-6.7-11.5-11.7z"/> <path class="st3" d="m298.3 465.6c11.9-1.7 23.8-3.8 35.4-7.4-0.7 3.8-1.5 7.6-3.1 11.1 0.3-2.3 0.4-4.5 0.6-6.8-2.1 0.1-5.1-0.9-6.1 1.7-5.6 10-13.6 19-24.1 24-10.5 4.9-22.4 7.8-34 6.1 8.6-8.6 17.1-17.4 25.3-26.4h-2.4c-8.4 9.7-17.9 18.3-26.6 27.7-0.3 0.2-1 0.6-1.4 0.9-6.7-1.4-13.5-2.2-20.3-3.2-1.5-1-3.1-2-4.6-3 13.8-7.3 28-14.1 41.8-21.4-5.3 1.5-9.9 4.4-14.8 6.8-11.1 5.5-22.2 11.2-33.2 16.9-1.4 0.6-2.9 1.8-4.3 0.7-5.3-2.9-10.2-6.5-13.9-11.3 12.3-3.9 24.3-8.5 36.1-13.8 3.3-1.6 7.1-1.1 10.6-0.9 6.7 0.5 13.5 0 20.3 0.8 6.2-1.6 12.6-0.9 18.7-2.5z"/> <path class="st3" d="m120.9 480.2c11.8-6.2 23.7-12.2 35.7-18 2.1 0.2 4 1 6 1.6 7.5 2.6 15.2 4.4 22.9 6.2-0.1 0.8-0.3 1.7-0.4 2.5-12.4 6.8-26.7 8.7-40.6 10-7.8 0-15.7 1.3-23.5 0.3 0-0.6-0.1-1.9-0.1-2.6z"/> <path class="st4" d="m20.7 151.3c6.9-1.4 13.8 1.4 20.4 3.4 10.2 3.6 20.1 8 30.2 12.1 0.8 0.7 1.6 1.4 2.3 2.2l-10.5-2.1c-14.3-3.9-28.4-8.4-43.1-10.5-3.5-0.4-2-4.9 0.7-5.1z"/> <path class="st4" d="m90.7 284.9c1.3 0.2 2.6 0.5 3.9 0.7-3.3 7.2-4.8 14.9-6.9 22.4-2.5 11.8-3.1 23.9-2.5 35.8 0.9 10.9 3.7 21.5 7.4 31.8 3.1 9.7 8.9 18.2 14.4 26.7 12.9 15.8 29.7 28.7 48.9 35.8-5.6-6-10.7-12.4-16.3-18.4 29.8 22.3 66.8 34 103.8 35.8 9.7 1.4 19.4-0.4 29.2-0.3 7.4-0.2 14.7-1.6 22-2.4 0.8-0.5 3.3-0.1 2.7-1.5-7.7-1.4-15.3-3.9-23.1-4.5 29.5-2.2 58.4-10.5 85.1-23 7.5-3.4 14-8.6 21.6-12-3.9 6.9-8.8 13.5-15.5 17.9-8 6.2-16.4 12.3-26 15.9-4.7 1.7-9 4.6-14 5.5-8.3 1.3-16.3 4.3-24.8 4.8-8 1.5-16-1-23.9 0-9.8 1.1-19.7 0.2-29.3 2.1l-0.4 1.6c-1-0.1-1.9-0.2-2.9-0.3-0.1 0.8-0.3 2.5-0.4 3.3v0.2c-9.8 4-19.5 8.4-30 10.2-2.4-2.4-4.6-5.5-8.1-6.3-4.1-1-8.3-1.4-12.4-2.1-18.9-3.5-37.4-9.3-54.9-17.3-14.9-7.2-29.1-16.4-39.9-29.1-15.5-17.8-24.7-40.7-26.3-64.2-2-24.3 5.5-48.7 18.6-69.1z"/> <path class="st5" d="m19.5 167.4c7.1 3 14.7 5 22.1 7.4 27.4 8.4 56 14 84.8 13.6-8.2 1.4-16.6 1.1-24.9 1.9-12.4-0.5-24.9-0.8-37-3.5-9.9-1.8-19.4-5.5-28.7-9.1-5.6-2.1-10.4-5.6-15.3-8.9-0.3-0.4-0.7-1.1-1-1.4z"/> <path class="st5" d="m325 464.2c0.9-2.6 4-1.6 6.1-1.7-0.2 2.3-0.3 4.5-0.6 6.8-3.3 9.8-11.2 17.4-19.6 23-15.5 9.6-34.6 12.5-52.5 10.1-10.1-0.9-20.3-3.3-29.3-8.1 2.6-1.4 5.2-2.8 7.9-4.1 1.5 1 3.1 2 4.6 3 6.8 1 13.6 1.8 20.3 3.2-1.2 1.8-2.3 3.6-3.4 5.5 3.3-2.1 5.9-4.9 8.4-7.7 11.6 1.7 23.5-1.1 34-6.1 10.5-4.8 18.6-13.8 24.1-23.9z"/> <path class="st5" d="m185.5 470c6.3 1.8 13.5 1.1 19.2 4.6-12.4 5.4-25.5 9.1-38.7 11.9-18.9 3.9-38.7 5.4-57.6 0.8 2-1.1 4-2.3 5.9-3.6-2.7 0.8-5.1 2.2-7.8 2.9-6.3-1-12.3-3.6-17.8-6.7-0.9-0.6-2.7-1.1-1.7-2.5 3.3-1.5 6.9-2.1 10.3-3.1-0.1 0.5-0.2 1.6-0.3 2.1 6.3-0.2 11.7 2.9 16.5 6.6 0.3 0.2 0.8 0.6 1.1 0.8 2.1-1.2 4.3-2.5 6.4-3.6 0 0.6 0.1 2 0.1 2.6 7.8 1.1 15.6-0.3 23.5-0.3 13.9-1.3 28.2-3.2 40.6-10 0-0.8 0.1-1.6 0.3-2.5z"/> <path class="st6" d="m289.9 468h2.4c-8.2 9-16.7 17.8-25.3 26.4-2.5 2.9-5.2 5.7-8.4 7.7 1.1-1.9 2.2-3.8 3.4-5.5 0.3-0.2 1-0.6 1.4-0.9 8.6-9.4 18.1-18.1 26.5-27.7z"/> </svg>